<svg width="28" height="52" viewBox="0 0 28 52" fill="none" xmlns="http://www.w3.org/2000/svg">
<path d="M27.9375 26C27.9375 26.875 27.25 27.5625 26.4375 27.5625H5.1875L13.5 35.4375C14.125 36 14.125 37 13.5625 37.5625C13 38.1875 12.0625 38.1875 11.4375 37.625L0.4375 27.125C0.125 26.8125 0 26.4375 0 26C0 25.625 0.125 25.25 0.4375 24.9375L11.4375 14.4375C12.0625 13.875 13 13.875 13.5625 14.5C14.125 15.0625 14.125 16.0625 13.5 16.625L5.1875 24.5H26.4375C27.3125 24.5 27.9375 25.1875 27.9375 26Z" fill="#2E2E2E"/>
</svg>
