<svg width="64" height="52" viewBox="0 0 64 52" fill="none" xmlns="http://www.w3.org/2000/svg">
<path d="M26.5 37H22C20.3125 37 19 35.6875 19 34V18C19 16.375 20.3125 15 22 15H26.5C27.3125 15 28 14.375 28 13.5C28 12.6875 27.3125 12 26.5 12H22C18.625 12 16 14.6875 16 18V34C16 37.375 18.625 40 22 40H26.5C27.3125 40 28 39.375 28 38.5C28 37.6875 27.3125 37 26.5 37ZM47.4375 24.9375L37.9375 16.5625C37.3125 16 36.4375 15.875 35.6875 16.1875C34.9375 16.5625 34.5 17.25 34.5 18.0625V21.5625H27C25.5625 21.5625 24.5 22.625 24.5 24.0625V28.0625C24.5 29.4375 25.5625 30.5625 27 30.5625H34.5V34C34.5 34.8125 34.9375 35.5 35.6875 35.875C35.9375 36 36.25 36.0625 36.5625 36.0625C37.0625 36.0625 37.5625 35.875 37.9375 35.5L47.4375 27.1875C47.8125 26.875 48 26.5 48 26.0625C48 25.625 47.8125 25.25 47.4375 24.9375ZM37.5 31.875V27.5H27.5V24.5H37.5V20.125L44.1875 26L37.5 31.875Z" fill="#F54748"/>
</svg>
