<svg width="190" height="42" viewBox="0 0 190 42" fill="none" xmlns="http://www.w3.org/2000/svg">
<path d="M41.5776 21C41.5776 32.4813 32.2701 41.7887 20.7888 41.7887C9.30745 41.7887 0 32.4813 0 21C0 9.51863 9.30745 0.211182 20.7888 0.211182C32.2701 0.211182 41.5776 9.51863 41.5776 21Z" fill="url(#paint0_linear_1_639)"/>
<path d="M13.3821 23.0679C13.3821 24.0933 12.625 24.9245 11.6911 24.9245C10.7571 24.9245 10 24.0933 10 23.0679C10 22.0424 10.7571 21.2112 11.6911 21.2112C12.625 21.2112 13.3821 22.0424 13.3821 23.0679Z" fill="white"/>
<path d="M13.3821 16.0679C13.3821 17.0933 12.625 17.9245 11.6911 17.9245C10.7571 17.9245 10 17.0933 10 16.0679C10 15.0424 10.7571 14.2112 11.6911 14.2112C12.625 14.2112 13.3821 15.0424 13.3821 16.0679Z" fill="white"/>
<path d="M27.5266 31.6211L23.0236 23.6677H21.0937V31.6211H17V11.2112H24.661C26.24 11.2112 27.5851 11.4938 28.6962 12.0592C29.8074 12.605 30.6359 13.3555 31.1817 14.3107C31.747 15.2464 32.0297 16.299 32.0297 17.4687C32.0297 18.8137 31.6398 20.0321 30.86 21.1237C30.0803 22.1959 28.9204 22.9367 27.3804 23.346L34 34.2112L27.5266 31.6211ZM21.0937 20.5974H24.5148C25.626 20.5974 26.4545 20.3342 27.0003 19.8079C27.5461 19.2621 27.819 18.5116 27.819 17.5564C27.819 16.6207 27.5461 15.8994 27.0003 15.3926C26.4545 14.8663 25.626 14.6031 24.5148 14.6031H21.0937V20.5974Z" fill="white"/>
<path d="M62.5442 32.2113L58.0411 24.2578H56.1113V32.2113H52.0176V11.8013H59.6786C61.2576 11.8013 62.6027 12.084 63.7138 12.6493C64.825 13.1951 65.6534 13.9456 66.1993 14.9008C66.7646 15.8365 67.0472 16.8892 67.0472 18.0588C67.0472 19.4039 66.6574 20.6222 65.8776 21.7139C65.0979 22.786 63.938 23.5268 62.398 23.9362L67.2812 32.2113H62.5442ZM56.1113 21.1875H59.5324C60.6436 21.1875 61.472 20.9244 62.0179 20.398C62.5637 19.8522 62.8366 19.1017 62.8366 18.1465C62.8366 17.2108 62.5637 16.4896 62.0179 15.9827C61.472 15.4564 60.6436 15.1932 59.5324 15.1932H56.1113V21.1875Z" fill="#2E2E2E"/>
<path d="M85.8088 23.7607C85.8088 24.3455 85.7698 24.8719 85.6918 25.3397H73.8493C73.9468 26.5093 74.3562 27.4255 75.0774 28.0883C75.7987 28.7511 76.6857 29.0825 77.7383 29.0825C79.2589 29.0825 80.3408 28.4295 80.984 27.1234H85.3994C84.9315 28.6829 84.0348 29.9695 82.7092 30.9831C81.3837 31.9773 79.7559 32.4744 77.8261 32.4744C76.2666 32.4744 74.863 32.1333 73.6154 31.451C72.3873 30.7492 71.4224 29.7648 70.7206 28.4977C70.0383 27.2306 69.6972 25.7686 69.6972 24.1116C69.6972 22.4351 70.0383 20.9634 70.7206 19.6963C71.4029 18.4292 72.3581 17.4545 73.5862 16.7722C74.8143 16.0899 76.2276 15.7488 77.8261 15.7488C79.3661 15.7488 80.7404 16.0802 81.949 16.743C83.1771 17.4058 84.1225 18.3512 84.7853 19.5793C85.4676 20.7879 85.8088 22.1817 85.8088 23.7607ZM81.5689 22.5911C81.5494 21.5384 81.1692 20.7002 80.4285 20.0764C79.6877 19.4331 78.7813 19.1115 77.7091 19.1115C76.6954 19.1115 75.8377 19.4234 75.1359 20.0472C74.4536 20.6515 74.0345 21.4994 73.8786 22.5911H81.5689Z" fill="#2E2E2E"/>
<path d="M87.7441 24.1116C87.7441 22.4351 88.0852 20.9731 88.7675 19.7255C89.4498 18.4584 90.3953 17.4837 91.6039 16.8015C92.8125 16.0997 94.1965 15.7488 95.756 15.7488C97.7639 15.7488 99.4209 16.2556 100.727 17.2693C102.053 18.2635 102.939 19.667 103.388 21.48H98.9725C98.7386 20.7782 98.339 20.2324 97.7736 19.8425C97.2278 19.4331 96.5455 19.2284 95.7268 19.2284C94.5572 19.2284 93.6312 19.6573 92.9489 20.515C92.2667 21.3532 91.9255 22.5521 91.9255 24.1116C91.9255 25.6516 92.2667 26.8505 92.9489 27.7082C93.6312 28.5464 94.5572 28.9655 95.7268 28.9655C97.3838 28.9655 98.4657 28.2248 98.9725 26.7433H103.388C102.939 28.4977 102.053 29.8915 100.727 30.9247C99.4014 31.9578 97.7444 32.4744 95.756 32.4744C94.1965 32.4744 92.8125 32.1333 91.6039 31.451C90.3953 30.7492 89.4498 29.7745 88.7675 28.5269C88.0852 27.2598 87.7441 25.7881 87.7441 24.1116Z" fill="#2E2E2E"/>
<path d="M108.463 14.0821C107.742 14.0821 107.137 13.8579 106.65 13.4095C106.182 12.9417 105.948 12.3666 105.948 11.6844C105.948 11.0021 106.182 10.4368 106.65 9.9884C107.137 9.52055 107.742 9.28662 108.463 9.28662C109.184 9.28662 109.779 9.52055 110.247 9.9884C110.734 10.4368 110.978 11.0021 110.978 11.6844C110.978 12.3666 110.734 12.9417 110.247 13.4095C109.779 13.8579 109.184 14.0821 108.463 14.0821ZM110.481 16.012V32.2113H106.387V16.012H110.481Z" fill="#2E2E2E"/>
<path d="M118.619 18.3512C119.145 17.6104 119.866 16.9964 120.783 16.5091C121.718 16.0022 122.781 15.7488 123.97 15.7488C125.354 15.7488 126.601 16.0899 127.713 16.7722C128.843 17.4545 129.73 18.4292 130.373 19.6963C131.036 20.9439 131.368 22.3962 131.368 24.0531C131.368 25.7101 131.036 27.1819 130.373 28.4685C129.73 29.7355 128.843 30.72 127.713 31.4218C126.601 32.1235 125.354 32.4744 123.97 32.4744C122.781 32.4744 121.728 32.2307 120.812 31.7434C119.915 31.2561 119.184 30.642 118.619 29.9012V39.9308H114.525V16.012H118.619V18.3512ZM127.186 24.0531C127.186 23.0784 126.982 22.2402 126.572 21.5384C126.182 20.8172 125.656 20.2713 124.993 19.901C124.35 19.5306 123.648 19.3454 122.888 19.3454C122.147 19.3454 121.445 19.5403 120.783 19.9302C120.139 20.3006 119.613 20.8464 119.204 21.5677C118.814 22.2889 118.619 23.1369 118.619 24.1116C118.619 25.0863 118.814 25.9343 119.204 26.6555C119.613 27.3768 120.139 27.9324 120.783 28.3223C121.445 28.6926 122.147 28.8778 122.888 28.8778C123.648 28.8778 124.35 28.6829 124.993 28.293C125.656 27.9031 126.182 27.3476 126.572 26.6263C126.982 25.905 127.186 25.0473 127.186 24.0531Z" fill="#2E2E2E"/>
<path d="M133.29 24.0531C133.29 22.4157 133.611 20.9634 134.255 19.6963C134.917 18.4292 135.804 17.4545 136.916 16.7722C138.046 16.0899 139.304 15.7488 140.688 15.7488C141.896 15.7488 142.949 15.9925 143.846 16.4798C144.762 16.9672 145.493 17.5812 146.039 18.322V16.012H150.162V32.2113H146.039V29.8428C145.512 30.603 144.781 31.2366 143.846 31.7434C142.929 32.2307 141.867 32.4744 140.658 32.4744C139.294 32.4744 138.046 32.1235 136.916 31.4218C135.804 30.72 134.917 29.7355 134.255 28.4685C133.611 27.1819 133.29 25.7101 133.29 24.0531ZM146.039 24.1116C146.039 23.1174 145.844 22.2694 145.454 21.5677C145.064 20.8464 144.538 20.3006 143.875 19.9302C143.212 19.5403 142.501 19.3454 141.74 19.3454C140.98 19.3454 140.278 19.5306 139.635 19.901C138.992 20.2713 138.465 20.8172 138.056 21.5384C137.666 22.2402 137.471 23.0784 137.471 24.0531C137.471 25.0278 137.666 25.8855 138.056 26.6263C138.465 27.3476 138.992 27.9031 139.635 28.293C140.298 28.6829 141 28.8778 141.74 28.8778C142.501 28.8778 143.212 28.6926 143.875 28.3223C144.538 27.9324 145.064 27.3866 145.454 26.6848C145.844 25.9635 146.039 25.1058 146.039 24.1116Z" fill="#2E2E2E"/>
<path d="M158.253 18.3512C158.78 17.6104 159.501 16.9964 160.417 16.5091C161.353 16.0022 162.415 15.7488 163.605 15.7488C164.989 15.7488 166.236 16.0899 167.347 16.7722C168.478 17.4545 169.365 18.4292 170.008 19.6963C170.671 20.9439 171.002 22.3962 171.002 24.0531C171.002 25.7101 170.671 27.1819 170.008 28.4685C169.365 29.7355 168.478 30.72 167.347 31.4218C166.236 32.1235 164.989 32.4744 163.605 32.4744C162.415 32.4744 161.363 32.2307 160.447 31.7434C159.55 31.2561 158.819 30.642 158.253 29.9012V39.9308H154.16V16.012H158.253V18.3512ZM166.821 24.0531C166.821 23.0784 166.616 22.2402 166.207 21.5384C165.817 20.8172 165.291 20.2713 164.628 19.901C163.985 19.5306 163.283 19.3454 162.523 19.3454C161.782 19.3454 161.08 19.5403 160.417 19.9302C159.774 20.3006 159.248 20.8464 158.838 21.5677C158.448 22.2889 158.253 23.1369 158.253 24.1116C158.253 25.0863 158.448 25.9343 158.838 26.6555C159.248 27.3768 159.774 27.9324 160.417 28.3223C161.08 28.6926 161.782 28.8778 162.523 28.8778C163.283 28.8778 163.985 28.6829 164.628 28.293C165.291 27.9031 165.817 27.3476 166.207 26.6263C166.616 25.905 166.821 25.0473 166.821 24.0531Z" fill="#2E2E2E"/>
<path d="M172.924 24.0531C172.924 22.4157 173.246 20.9634 173.889 19.6963C174.552 18.4292 175.439 17.4545 176.55 16.7722C177.681 16.0899 178.938 15.7488 180.322 15.7488C181.531 15.7488 182.584 15.9925 183.48 16.4798C184.397 16.9672 185.128 17.5812 185.673 18.322V16.012H189.796V32.2113H185.673V29.8428C185.147 30.603 184.416 31.2366 183.48 31.7434C182.564 32.2307 181.502 32.4744 180.293 32.4744C178.929 32.4744 177.681 32.1235 176.55 31.4218C175.439 30.72 174.552 29.7355 173.889 28.4685C173.246 27.1819 172.924 25.7101 172.924 24.0531ZM185.673 24.1116C185.673 23.1174 185.478 22.2694 185.089 21.5677C184.699 20.8464 184.172 20.3006 183.51 19.9302C182.847 19.5403 182.135 19.3454 181.375 19.3454C180.615 19.3454 179.913 19.5306 179.27 19.901C178.626 20.2713 178.1 20.8172 177.691 21.5384C177.301 22.2402 177.106 23.0784 177.106 24.0531C177.106 25.0278 177.301 25.8855 177.691 26.6263C178.1 27.3476 178.626 27.9031 179.27 28.293C179.932 28.6829 180.634 28.8778 181.375 28.8778C182.135 28.8778 182.847 28.6926 183.51 28.3223C184.172 27.9324 184.699 27.3866 185.089 26.6848C185.478 25.9635 185.673 25.1058 185.673 24.1116Z" fill="#2E2E2E"/>
<defs>
<linearGradient id="paint0_linear_1_639" x1="9.00847" y1="1.69609" x2="43.821" y2="34.1878" gradientUnits="userSpaceOnUse">
<stop stop-color="#FF5E5F"/>
<stop offset="1" stop-color="#F54748"/>
</linearGradient>
</defs>
</svg>
