<svg width="17" height="16" viewBox="0 0 17 16" fill="none" xmlns="http://www.w3.org/2000/svg">
<path d="M16.1338 14.5735L12.3258 10.6129C13.3049 9.44901 13.8414 7.98455 13.8414 6.45999C13.8414 2.89801 10.9434 0 7.38138 0C3.8194 0 0.921387 2.89801 0.921387 6.45999C0.921387 10.022 3.8194 12.92 7.38138 12.92C8.7186 12.92 9.9929 12.5167 11.0824 11.751L14.9194 15.7416C15.0797 15.9082 15.2954 16 15.5266 16C15.7454 16 15.9529 15.9166 16.1105 15.7649C16.4453 15.4428 16.456 14.9085 16.1338 14.5735ZM7.38138 1.68522C10.0142 1.68522 12.1562 3.82713 12.1562 6.45999C12.1562 9.09286 10.0142 11.2348 7.38138 11.2348C4.74851 11.2348 2.6066 9.09286 2.6066 6.45999C2.6066 3.82713 4.74851 1.68522 7.38138 1.68522Z" fill="#8B8B8B"/>
</svg>
